<?xml version="1.0" encoding="UTF-8"?>
<!DOCTYPE svg PUBLIC "-//W3C//DTD SVG 1.1//EN" "http://www.w3.org/Graphics/SVG/1.1/DTD/svg11.dtd">
<svg xmlns="http://www.w3.org/2000/svg" version="1.1" width="343px" height="400px" style="shape-rendering:geometricPrecision; text-rendering:geometricPrecision; image-rendering:optimizeQuality; fill-rule:evenodd; clip-rule:evenodd" xmlns:xlink="http://www.w3.org/1999/xlink">
<g><path style="opacity:0.919" fill="#e53030" d="M 168.5,-0.5 C 169.5,-0.5 170.5,-0.5 171.5,-0.5C 177.356,7.21447 181.022,15.8811 182.5,25.5C 174.265,26.8138 165.932,26.8138 157.5,25.5C 159.526,16.1167 163.193,7.44999 168.5,-0.5 Z"/></g>
<g><path style="opacity:0.958" fill="#fbac3f" d="M 157.5,25.5 C 165.932,26.8138 174.265,26.8138 182.5,25.5C 185.086,26.6385 186.753,28.6385 187.5,31.5C 177.937,33.45 168.27,33.95 158.5,33C 156.347,32.9005 154.681,32.0672 153.5,30.5C 154.08,28.2512 155.413,26.5846 157.5,25.5 Z"/></g>
<g><path style="opacity:0.963" fill="#e73d31" d="M 153.5,30.5 C 154.681,32.0672 156.347,32.9005 158.5,33C 168.27,33.95 177.937,33.45 187.5,31.5C 188.974,32.4363 189.974,33.7697 190.5,35.5C 177.054,40.7146 163.72,40.7146 150.5,35.5C 150.273,33.0672 151.273,31.4006 153.5,30.5 Z"/></g>
<g><path style="opacity:0.973" fill="#fbaf3f" d="M 150.5,35.5 C 163.72,40.7146 177.054,40.7146 190.5,35.5C 194.266,37.9924 195.266,41.3258 193.5,45.5C 177.782,50.7746 162.115,50.7746 146.5,45.5C 145.576,41.1157 146.909,37.7824 150.5,35.5 Z"/></g>
<g><path style="opacity:0.983" fill="#e53330" d="M 146.5,45.5 C 162.115,50.7746 177.782,50.7746 193.5,45.5C 196.937,47.0226 198.937,49.6893 199.5,53.5C 194.948,57.6116 189.615,60.445 183.5,62C 167.994,65.5277 153.661,63.0277 140.5,54.5C 140.897,50.4353 142.897,47.4353 146.5,45.5 Z"/></g>
<g><path style="opacity:0.984" fill="#fbaf40" d="M 199.5,53.5 C 208.683,57.8562 212.683,65.1896 211.5,75.5C 209.167,77.1667 207.167,79.1667 205.5,81.5C 200.546,84.1466 195.546,86.48 190.5,88.5C 188.565,89.1495 186.565,89.4828 184.5,89.5C 180.846,89.9422 177.179,90.2756 173.5,90.5C 171.5,90.5 169.5,90.5 167.5,90.5C 163.833,90.5 160.167,90.5 156.5,90.5C 154.343,89.5933 152.01,88.9267 149.5,88.5C 144.554,86.6939 139.888,84.3606 135.5,81.5C 133.167,79.5 130.833,77.5 128.5,75.5C 128.119,67.1322 131.119,60.2989 137.5,55C 138.448,54.5172 139.448,54.3505 140.5,54.5C 153.661,63.0277 167.994,65.5277 183.5,62C 189.615,60.445 194.948,57.6116 199.5,53.5 Z"/></g>
<g><path style="opacity:0.99" fill="#fef5f5" d="M 128.5,75.5 C 130.833,77.5 133.167,79.5 135.5,81.5C 141.702,104.389 147.369,127.389 152.5,150.5C 151.609,151.11 150.609,151.443 149.5,151.5C 141.631,126.56 133.964,101.56 126.5,76.5C 127.167,76.1667 127.833,75.8333 128.5,75.5 Z"/></g>
<g><path style="opacity:0.992" fill="#fef5f4" d="M 211.5,75.5 C 212.609,75.5569 213.609,75.8902 214.5,76.5C 206.631,101.44 198.964,126.44 191.5,151.5C 190.167,151.167 188.833,150.833 187.5,150.5C 193.497,127.508 199.497,104.508 205.5,81.5C 207.167,79.1667 209.167,77.1667 211.5,75.5 Z"/></g>
<g><path style="opacity:0.987" fill="#e33432" d="M 126.5,76.5 C 133.964,101.56 141.631,126.56 149.5,151.5C 147.579,152.363 145.579,153.029 143.5,153.5C 134.549,130.307 125.216,107.307 115.5,84.5C 118.952,81.6007 122.618,78.9341 126.5,76.5 Z"/></g>
<g><path style="opacity:0.984" fill="#e33432" d="M 214.5,76.5 C 218.146,78.8171 221.48,81.4838 224.5,84.5C 215.304,107.421 206.304,130.421 197.5,153.5C 195.421,153.029 193.421,152.363 191.5,151.5C 198.964,126.44 206.631,101.44 214.5,76.5 Z"/></g>
<g><path style="opacity:0.994" fill="#df312f" d="M 135.5,81.5 C 139.888,84.3606 144.554,86.6939 149.5,88.5C 152.825,108.783 155.825,129.116 158.5,149.5C 156.435,149.517 154.435,149.85 152.5,150.5C 147.369,127.389 141.702,104.389 135.5,81.5 Z"/></g>
<g><path style="opacity:0.99" fill="#100302" d="M 115.5,84.5 C 125.216,107.307 134.549,130.307 143.5,153.5C 142.791,154.404 141.791,154.737 140.5,154.5C 129.88,132.928 119.547,111.262 109.5,89.5C 111.475,87.863 113.475,86.1964 115.5,84.5 Z"/></g>
<g><path style="opacity:0.995" fill="#e03230" d="M 205.5,81.5 C 199.497,104.508 193.497,127.508 187.5,150.5C 185.883,149.962 184.216,149.629 182.5,149.5C 184.845,129.756 187.845,110.089 191.5,90.5C 191.457,89.5836 191.124,88.9169 190.5,88.5C 195.546,86.48 200.546,84.1466 205.5,81.5 Z"/></g>
<g><path style="opacity:0.996" fill="#0d0201" d="M 224.5,84.5 C 226.909,85.7007 228.909,87.3674 230.5,89.5C 220.489,111.52 210.489,133.52 200.5,155.5C 199.29,155.068 198.29,154.401 197.5,153.5C 206.304,130.421 215.304,107.421 224.5,84.5 Z"/></g>
<g><path style="opacity:0.997" fill="#100402" d="M 149.5,88.5 C 152.01,88.9267 154.343,89.5933 156.5,90.5C 158.426,109.837 160.426,129.17 162.5,148.5C 161.041,148.433 159.708,148.766 158.5,149.5C 155.825,129.116 152.825,108.783 149.5,88.5 Z"/></g>
<g><path style="opacity:0.992" fill="#120402" d="M 190.5,88.5 C 191.124,88.9169 191.457,89.5836 191.5,90.5C 187.845,110.089 184.845,129.756 182.5,149.5C 181.167,149.167 179.833,148.833 178.5,148.5C 180.254,128.804 182.254,109.137 184.5,89.5C 186.565,89.4828 188.565,89.1495 190.5,88.5 Z"/></g>
<g><path style="opacity:0.99" fill="#e33231" d="M 109.5,89.5 C 119.547,111.262 129.88,132.928 140.5,154.5C 139.035,155.737 137.368,156.737 135.5,157.5C 123.303,137.768 111.637,117.768 100.5,97.5C 103.5,94.8333 106.5,92.1667 109.5,89.5 Z"/></g>
<g><path style="opacity:0.991" fill="#e43533" d="M 156.5,90.5 C 160.167,90.5 163.833,90.5 167.5,90.5C 167.878,109.832 168.211,129.166 168.5,148.5C 166.5,148.5 164.5,148.5 162.5,148.5C 160.426,129.17 158.426,109.837 156.5,90.5 Z"/></g>
<g><path style="opacity:0.992" fill="#e43532" d="M 184.5,89.5 C 182.254,109.137 180.254,128.804 178.5,148.5C 176.5,148.5 174.5,148.5 172.5,148.5C 172.492,129.159 172.825,109.826 173.5,90.5C 177.179,90.2756 180.846,89.9422 184.5,89.5 Z"/></g>
<g><path style="opacity:0.98" fill="#e23130" d="M 230.5,89.5 C 234.436,91.7657 237.769,94.7657 240.5,98.5C 229.016,118.297 217.35,137.964 205.5,157.5C 203.716,157.107 202.05,156.441 200.5,155.5C 210.489,133.52 220.489,111.52 230.5,89.5 Z"/></g>
<g><path style="opacity:0.99" fill="#fef8f7" d="M 167.5,90.5 C 169.5,90.5 171.5,90.5 173.5,90.5C 172.825,109.826 172.492,129.159 172.5,148.5C 171.167,148.5 169.833,148.5 168.5,148.5C 168.211,129.166 167.878,109.832 167.5,90.5 Z"/></g>
<g><path style="opacity:0.989" fill="#fef4f3" d="M 100.5,97.5 C 111.637,117.768 123.303,137.768 135.5,157.5C 134.205,158.488 132.872,159.488 131.5,160.5C 120.352,141.826 108.519,123.493 96,105.5C 95.5172,104.552 95.3505,103.552 95.5,102.5C 96.9387,100.64 98.6053,98.973 100.5,97.5 Z"/></g>
<g><path style="opacity:0.986" fill="#fef5f4" d="M 240.5,98.5 C 242.5,99.8333 244.167,101.5 245.5,103.5C 233.153,122.203 220.82,140.87 208.5,159.5C 206.973,159.573 205.973,158.906 205.5,157.5C 217.35,137.964 229.016,118.297 240.5,98.5 Z"/></g>
<g><path style="opacity:0.985" fill="#e23130" d="M 95.5,102.5 C 95.3505,103.552 95.5172,104.552 96,105.5C 108.519,123.493 120.352,141.826 131.5,160.5C 130.205,161.488 128.872,162.488 127.5,163.5C 114.282,146.356 100.615,129.689 86.5,113.5C 89.1518,109.518 92.1518,105.851 95.5,102.5 Z"/></g>
<g><path style="opacity:0.98" fill="#e33231" d="M 245.5,103.5 C 248.861,105.895 251.528,108.895 253.5,112.5C 240.167,129.5 226.833,146.5 213.5,163.5C 211.251,162.92 209.585,161.587 208.5,159.5C 220.82,140.87 233.153,122.203 245.5,103.5 Z"/></g>
<g><path style="opacity:0.991" fill="#100302" d="M 86.5,113.5 C 100.615,129.689 114.282,146.356 127.5,163.5C 126.833,164.833 125.833,165.833 124.5,166.5C 111.914,151.075 98.7476,136.075 85,121.5C 84.2086,120.255 83.7086,118.922 83.5,117.5C 83.7376,115.596 84.7376,114.262 86.5,113.5 Z"/></g>
<g><path style="opacity:0.992" fill="#0f0302" d="M 253.5,112.5 C 255.137,114.475 256.804,116.475 258.5,118.5C 244.134,134.198 230.134,150.198 216.5,166.5C 215.167,165.833 214.167,164.833 213.5,163.5C 226.833,146.5 240.167,129.5 253.5,112.5 Z"/></g>
<g><path style="opacity:0.984" fill="#e23130" d="M 83.5,117.5 C 83.7086,118.922 84.2086,120.255 85,121.5C 98.7476,136.075 111.914,151.075 124.5,166.5C 123.205,167.488 121.872,168.488 120.5,169.5C 105.504,155.837 90.8373,141.837 76.5,127.5C 78.0621,123.608 80.3954,120.275 83.5,117.5 Z"/></g>
<g><path style="opacity:0.979" fill="#e33231" d="M 258.5,118.5 C 261.014,121.53 263.014,124.863 264.5,128.5C 249.504,142.163 234.837,156.163 220.5,170.5C 218.833,169.5 217.5,168.167 216.5,166.5C 230.134,150.198 244.134,134.198 258.5,118.5 Z"/></g>
<g><path style="opacity:0.991" fill="#fef4f4" d="M 76.5,127.5 C 90.8373,141.837 105.504,155.837 120.5,169.5C 120.573,171.027 119.906,172.027 118.5,172.5C 102.555,160.221 87.2212,147.221 72.5,133.5C 73.3403,131.147 74.6736,129.147 76.5,127.5 Z"/></g>
<g><path style="opacity:0.987" fill="#fef5f4" d="M 264.5,128.5 C 266.063,129.945 267.396,131.611 268.5,133.5C 253.462,147.206 238.129,160.54 222.5,173.5C 221.599,172.71 220.932,171.71 220.5,170.5C 234.837,156.163 249.504,142.163 264.5,128.5 Z"/></g>
<g><path style="opacity:0.983" fill="#e23130" d="M 268.5,133.5 C 270.438,137.043 272.105,140.71 273.5,144.5C 257.518,155.475 241.518,166.475 225.5,177.5C 224.512,176.205 223.512,174.872 222.5,173.5C 238.129,160.54 253.462,147.206 268.5,133.5 Z"/></g>
<g><path style="opacity:0.979" fill="#e23231" d="M 72.5,133.5 C 87.2212,147.221 102.555,160.221 118.5,172.5C 117.752,174.332 116.752,175.999 115.5,177.5C 101.383,167.932 87.3831,158.099 73.5,148C 71.4234,146.295 69.09,145.128 66.5,144.5C 67.7417,140.345 69.7417,136.678 72.5,133.5 Z"/></g>
<g><path style="opacity:0.993" fill="#0f0302" d="M 66.5,144.5 C 69.09,145.128 71.4234,146.295 73.5,148C 87.3831,158.099 101.383,167.932 115.5,177.5C 114.833,178.5 114.167,179.5 113.5,180.5C 97.0276,170.762 80.6943,160.762 64.5,150.5C 64.595,148.214 65.2616,146.214 66.5,144.5 Z"/></g>
<g><path style="opacity:0.99" fill="#100302" d="M 273.5,144.5 C 275.008,146.181 276.008,148.181 276.5,150.5C 260.167,160.5 243.833,170.5 227.5,180.5C 226.094,180.027 225.427,179.027 225.5,177.5C 241.518,166.475 257.518,155.475 273.5,144.5 Z"/></g>
<g><path style="opacity:0.979" fill="#e23231" d="M 64.5,150.5 C 80.6943,160.762 97.0276,170.762 113.5,180.5C 112.248,182.001 111.248,183.668 110.5,185.5C 93.8333,177.167 77.1667,168.833 60.5,160.5C 61.2667,156.851 62.6001,153.518 64.5,150.5 Z"/></g>
<g><path style="opacity:0.979" fill="#e33130" d="M 276.5,150.5 C 277.899,153.699 278.899,157.032 279.5,160.5C 263.043,169.395 246.377,177.728 229.5,185.5C 228.833,183.833 228.167,182.167 227.5,180.5C 243.833,170.5 260.167,160.5 276.5,150.5 Z"/></g>
<g><path style="opacity:0.948" fill="#020100" d="M 162.5,160.5 C 194.171,159.357 214.005,174.023 222,204.5C 224.501,227.324 216.335,245.158 197.5,258C 169.234,271.474 145.401,265.974 126,241.5C 110.922,211.313 117.088,186.48 144.5,167C 150.435,164.303 156.435,162.136 162.5,160.5 Z"/></g>
<g><path style="opacity:0.996" fill="#fef3f2" d="M 60.5,160.5 C 77.1667,168.833 93.8333,177.167 110.5,185.5C 110.011,186.995 109.345,188.329 108.5,189.5C 92.0618,181.613 75.3951,174.28 58.5,167.5C 59.3186,165.228 59.9853,162.894 60.5,160.5 Z"/></g>
<g><path style="opacity:0.992" fill="#fef2f2" d="M 279.5,160.5 C 280.612,162.599 281.279,164.933 281.5,167.5C 264.844,174.827 248.177,182.161 231.5,189.5C 230.833,188.167 230.167,186.833 229.5,185.5C 246.377,177.728 263.043,169.395 279.5,160.5 Z"/></g>
<g><path style="opacity:0.977" fill="#e1302f" d="M 58.5,167.5 C 75.3951,174.28 92.0618,181.613 108.5,189.5C 108.204,191.403 107.537,193.07 106.5,194.5C 90.1026,189.034 73.7693,183.367 57.5,177.5C 57.8333,174.167 58.1667,170.833 58.5,167.5 Z"/></g>
<g><path style="opacity:0.974" fill="#e33130" d="M 281.5,167.5 C 282.344,171.099 282.677,174.766 282.5,178.5C 266.049,183.428 249.716,188.761 233.5,194.5C 232.833,192.833 232.167,191.167 231.5,189.5C 248.177,182.161 264.844,174.827 281.5,167.5 Z"/></g>
<g><path style="opacity:1" fill="#f8ad3f" d="M 160.5,176.5 C 182.608,173.344 197.775,182.01 206,202.5C 210.25,224.452 202.083,239.618 181.5,248C 157.229,253.121 141.395,243.955 134,220.5C 131.869,199.077 140.703,184.41 160.5,176.5 Z"/></g>
<g><path style="opacity:0.988" fill="#130402" d="M 57.5,177.5 C 73.7693,183.367 90.1026,189.034 106.5,194.5C 106.768,196.099 106.434,197.432 105.5,198.5C 90.494,194.163 75.494,189.663 60.5,185C 59.1859,184.015 58.1859,182.848 57.5,181.5C 57.5,180.167 57.5,178.833 57.5,177.5 Z"/></g>
<g><path style="opacity:0.981" fill="#100302" d="M 282.5,178.5 C 283.341,180.379 283.675,182.379 283.5,184.5C 267.036,188.766 250.703,193.433 234.5,198.5C 234.167,197.167 233.833,195.833 233.5,194.5C 249.716,188.761 266.049,183.428 282.5,178.5 Z"/></g>
<g><path style="opacity:0.971" fill="#e43432" d="M 57.5,181.5 C 58.1859,182.848 59.1859,184.015 60.5,185C 75.494,189.663 90.494,194.163 105.5,198.5C 105.5,200.167 105.5,201.833 105.5,203.5C 89.7674,200.887 74.1008,197.887 58.5,194.5C 57.5151,190.366 57.1818,186.032 57.5,181.5 Z"/></g>
<g><path style="opacity:0.976" fill="#e0302f" d="M 283.5,184.5 C 282.793,187.786 282.46,191.119 282.5,194.5C 266.917,197.883 251.25,200.883 235.5,203.5C 235.371,201.784 235.038,200.117 234.5,198.5C 250.703,193.433 267.036,188.766 283.5,184.5 Z"/></g>
<g><path style="opacity:1" fill="#e53330" d="M 163.5,189.5 C 177.44,187.414 187.273,192.747 193,205.5C 195.178,226.654 185.678,236.821 164.5,236C 150.606,231.056 144.772,221.222 147,206.5C 150.019,198.316 155.519,192.649 163.5,189.5 Z"/></g>
<g><path style="opacity:0.99" fill="#feefee" d="M 58.5,194.5 C 74.1008,197.887 89.7674,200.887 105.5,203.5C 104.766,204.708 104.433,206.041 104.5,207.5C 89.4606,205.758 74.4606,203.758 59.5,201.5C 58.6314,199.283 58.298,196.95 58.5,194.5 Z"/></g>
<g><path style="opacity:0.981" fill="#fef1f1" d="M 282.5,194.5 C 282.007,196.806 281.674,199.139 281.5,201.5C 266.448,203.126 251.448,205.126 236.5,207.5C 235.566,206.432 235.232,205.099 235.5,203.5C 251.25,200.883 266.917,197.883 282.5,194.5 Z"/></g>
<g><path style="opacity:0.964" fill="#e02f2f" d="M 59.5,201.5 C 74.4606,203.758 89.4606,205.758 104.5,207.5C 104.5,209.5 104.5,211.5 104.5,213.5C 90.1847,212.293 75.8513,211.293 61.5,210.5C 60.4222,207.598 59.7556,204.598 59.5,201.5 Z"/></g>
<g><path style="opacity:1" fill="#fbae3f" d="M 166.5,200.5 C 179.515,200.675 184.349,207.008 181,219.5C 171.976,228.272 164.31,227.272 158,216.5C 156.88,209.073 159.713,203.74 166.5,200.5 Z"/></g>
<g><path style="opacity:0.973" fill="#e23432" d="M 281.5,201.5 C 280.654,204.548 279.654,207.548 278.5,210.5C 264.481,211.251 250.481,212.251 236.5,213.5C 236.5,211.5 236.5,209.5 236.5,207.5C 251.448,205.126 266.448,203.126 281.5,201.5 Z"/></g>
<g><path style="opacity:0.98" fill="#100402" d="M 61.5,210.5 C 75.8513,211.293 90.1847,212.293 104.5,213.5C 104.5,214.5 104.5,215.5 104.5,216.5C 90.8333,216.5 77.1667,216.5 63.5,216.5C 63.0293,214.421 62.3627,212.421 61.5,210.5 Z"/></g>
<g><path style="opacity:0.983" fill="#0e0302" d="M 278.5,210.5 C 278.125,212.698 277.458,214.698 276.5,216.5C 263.167,216.5 249.833,216.5 236.5,216.5C 236.5,215.5 236.5,214.5 236.5,213.5C 250.481,212.251 264.481,211.251 278.5,210.5 Z"/></g>
<g><path style="opacity:0.962" fill="#dc2e2e" d="M 63.5,216.5 C 77.1667,216.5 90.8333,216.5 104.5,216.5C 104.5,218.5 104.5,220.5 104.5,222.5C 92.0793,223.043 79.746,224.043 67.5,225.5C 65.8921,222.618 64.5587,219.618 63.5,216.5 Z"/></g>
<g><path style="opacity:0.971" fill="#de3332" d="M 236.5,216.5 C 249.833,216.5 263.167,216.5 276.5,216.5C 275.925,219.912 274.592,222.912 272.5,225.5C 260.17,224.453 247.837,223.453 235.5,222.5C 236.15,220.565 236.483,218.565 236.5,216.5 Z"/></g>
<g><path style="opacity:0.975" fill="#fef2f1" d="M 235.5,222.5 C 247.837,223.453 260.17,224.453 272.5,225.5C 272.107,227.284 271.441,228.95 270.5,230.5C 258.846,229.101 247.18,227.768 235.5,226.5C 235.5,225.167 235.5,223.833 235.5,222.5 Z"/></g>
<g><path style="opacity:0.979" fill="#feeeee" d="M 104.5,222.5 C 105.11,223.391 105.443,224.391 105.5,225.5C 93.9114,227.441 82.2448,229.108 70.5,230.5C 69.2632,229.035 68.2632,227.368 67.5,225.5C 79.746,224.043 92.0793,223.043 104.5,222.5 Z"/></g>
<g><path style="opacity:0.956" fill="#e23633" d="M 105.5,225.5 C 105.517,227.565 105.85,229.565 106.5,231.5C 96.2215,233.956 85.8882,236.29 75.5,238.5C 73.0499,236.371 71.3833,233.704 70.5,230.5C 82.2448,229.108 93.9114,227.441 105.5,225.5 Z"/></g>
<g><path style="opacity:0.961" fill="#e03230" d="M 235.5,226.5 C 247.18,227.768 258.846,229.101 270.5,230.5C 268.833,233.167 267.167,235.833 265.5,238.5C 255.134,236.325 244.8,233.992 234.5,231.5C 234.366,229.708 234.699,228.042 235.5,226.5 Z"/></g>
<g><path style="opacity:0.969" fill="#100302" d="M 106.5,231.5 C 106.833,232.833 107.167,234.167 107.5,235.5C 97.4412,237.096 87.7746,239.762 78.5,243.5C 77.1103,242.101 76.1103,240.434 75.5,238.5C 85.8882,236.29 96.2215,233.956 106.5,231.5 Z"/></g>
<g><path style="opacity:0.99" fill="#190704" d="M 234.5,231.5 C 244.8,233.992 255.134,236.325 265.5,238.5C 264.974,240.23 263.974,241.564 262.5,242.5C 252.508,240.17 242.508,237.837 232.5,235.5C 232.989,234.005 233.655,232.671 234.5,231.5 Z"/></g>
<g><path style="opacity:0.953" fill="#df302f" d="M 107.5,235.5 C 108.441,237.05 109.107,238.716 109.5,240.5C 100.378,242.87 91.7111,246.204 83.5,250.5C 81.4525,248.45 79.7859,246.117 78.5,243.5C 87.7746,239.762 97.4412,237.096 107.5,235.5 Z"/></g>
<g><path style="opacity:0.962" fill="#e43332" d="M 232.5,235.5 C 242.508,237.837 252.508,240.17 262.5,242.5C 261.214,245.117 259.547,247.45 257.5,249.5C 248.562,246.298 239.562,243.298 230.5,240.5C 231.441,238.95 232.107,237.284 232.5,235.5 Z"/></g>
<g><path style="opacity:0.96" fill="#fef1f1" d="M 109.5,240.5 C 110.11,241.391 110.443,242.391 110.5,243.5C 102.504,246.831 94.5044,250.164 86.5,253.5C 85.1667,252.833 84.1667,251.833 83.5,250.5C 91.7111,246.204 100.378,242.87 109.5,240.5 Z"/></g>
<g><path style="opacity:0.97" fill="#fef2f1" d="M 230.5,240.5 C 239.562,243.298 248.562,246.298 257.5,249.5C 256.876,251.754 255.543,253.421 253.5,254.5C 245.803,250.321 237.803,246.654 229.5,243.5C 230.11,242.609 230.443,241.609 230.5,240.5 Z"/></g>
<g><path style="opacity:0.957" fill="#e03231" d="M 110.5,243.5 C 111.89,244.899 112.89,246.566 113.5,248.5C 106.329,252.251 99.3293,256.251 92.5,260.5C 89.7573,258.761 87.7573,256.427 86.5,253.5C 94.5044,250.164 102.504,246.831 110.5,243.5 Z"/></g>
<g><path style="opacity:0.954" fill="#e23231" d="M 229.5,243.5 C 237.803,246.654 245.803,250.321 253.5,254.5C 251.804,256.525 250.137,258.525 248.5,260.5C 241.332,256.417 234.332,252.084 227.5,247.5C 227.733,245.938 228.4,244.605 229.5,243.5 Z"/></g>
<g><path style="opacity:0.958" fill="#120302" d="M 113.5,248.5 C 114.401,249.29 115.068,250.29 115.5,251.5C 108.571,255.102 101.905,259.102 95.5,263.5C 94.1667,262.833 93.1667,261.833 92.5,260.5C 99.3293,256.251 106.329,252.251 113.5,248.5 Z"/></g>
<g><path style="opacity:0.965" fill="#140402" d="M 227.5,247.5 C 234.332,252.084 241.332,256.417 248.5,260.5C 247.833,261.833 246.833,262.833 245.5,263.5C 238.635,259.235 231.635,255.235 224.5,251.5C 225.512,250.128 226.512,248.795 227.5,247.5 Z"/></g>
<g><path style="opacity:0.952" fill="#e43332" d="M 115.5,251.5 C 116.488,252.795 117.488,254.128 118.5,255.5C 112.8,259.354 107.467,263.688 102.5,268.5C 99.3567,268.031 97.0233,266.364 95.5,263.5C 101.905,259.102 108.571,255.102 115.5,251.5 Z"/></g>
<g><path style="opacity:0.952" fill="#e33231" d="M 224.5,251.5 C 231.635,255.235 238.635,259.235 245.5,263.5C 243.704,265.9 241.37,267.567 238.5,268.5C 233.167,264.167 227.833,259.833 222.5,255.5C 222.733,253.938 223.4,252.605 224.5,251.5 Z"/></g>
<g><path style="opacity:0.956" fill="#fef2f1" d="M 118.5,255.5 C 119.401,256.29 120.068,257.29 120.5,258.5C 116.808,261.862 113.141,265.195 109.5,268.5C 107.167,268.5 104.833,268.5 102.5,268.5C 107.467,263.688 112.8,259.354 118.5,255.5 Z"/></g>
<g><path style="opacity:0.956" fill="#fef2f1" d="M 222.5,255.5 C 227.833,259.833 233.167,264.167 238.5,268.5C 236.167,268.5 233.833,268.5 231.5,268.5C 227.817,264.82 223.817,261.486 219.5,258.5C 220.167,257.167 221.167,256.167 222.5,255.5 Z"/></g>
<g><path style="opacity:0.933" fill="#e13332" d="M 219.5,258.5 C 223.817,261.486 227.817,264.82 231.5,268.5C 228.167,268.5 224.833,268.5 221.5,268.5C 219.478,266.469 217.811,264.135 216.5,261.5C 217.167,260.167 218.167,259.167 219.5,258.5 Z"/></g>
<g><path style="opacity:0.936" fill="#e53231" d="M 120.5,258.5 C 122.167,259.5 123.5,260.833 124.5,262.5C 122.167,264.167 120.167,266.167 118.5,268.5C 115.5,268.5 112.5,268.5 109.5,268.5C 113.141,265.195 116.808,261.862 120.5,258.5 Z"/></g>
<g><path style="opacity:0.895" fill="#1c0804" d="M 124.5,262.5 C 125.167,262.833 125.833,263.167 126.5,263.5C 126.107,265.284 125.441,266.95 124.5,268.5C 122.5,268.5 120.5,268.5 118.5,268.5C 120.167,266.167 122.167,264.167 124.5,262.5 Z"/></g>
<g><path style="opacity:0.899" fill="#170603" d="M 216.5,261.5 C 217.811,264.135 219.478,266.469 221.5,268.5C 219.833,268.5 218.167,268.5 216.5,268.5C 215.5,267.167 214.5,265.833 213.5,264.5C 214.167,263.167 215.167,262.167 216.5,261.5 Z"/></g>
<g><path style="opacity:0.619" fill="#dd2e2e" d="M 126.5,263.5 C 133.672,268.818 133.005,270.485 124.5,268.5C 125.441,266.95 126.107,265.284 126.5,263.5 Z"/></g>
<g><path style="opacity:0.769" fill="#d52d2c" d="M 213.5,264.5 C 214.5,265.833 215.5,267.167 216.5,268.5C 213.653,268.782 210.987,268.782 208.5,268.5C 209.611,266.448 211.277,265.114 213.5,264.5 Z"/></g>
<g><path style="opacity:0.862" fill="#fefffe" d="M 32.5,304.5 C 34.924,304.192 37.2573,304.526 39.5,305.5C 47.8807,322.261 55.7141,339.261 63,356.5C 65.1945,359.963 68.3612,361.296 72.5,360.5C 72.5,362.167 72.5,363.833 72.5,365.5C 61.1605,364.332 49.8272,364.332 38.5,365.5C 38.2865,363.856 38.6198,362.356 39.5,361C 42.4512,360.904 45.1178,360.071 47.5,358.5C 45.6068,353.713 43.4402,349.047 41,344.5C 34.9977,344.906 28.9977,345.239 23,345.5C 21.0692,349.793 19.2359,354.126 17.5,358.5C 20.1934,360.27 23.1934,360.937 26.5,360.5C 26.5,362.167 26.5,363.833 26.5,365.5C 17.8226,364.385 9.1559,364.385 0.5,365.5C 0.5,363.833 0.5,362.167 0.5,360.5C 3.92973,360.893 7.09639,360.227 10,358.5C 17.7886,340.593 25.2886,322.593 32.5,304.5 Z M 31.5,323.5 C 34.1976,327.887 36.531,332.554 38.5,337.5C 34.5546,338.491 30.5546,338.824 26.5,338.5C 27.88,333.406 29.5467,328.406 31.5,323.5 Z"/></g>
<g><path style="opacity:0.86" fill="#fefffe" d="M 225.5,304.5 C 228.119,304.232 230.619,304.565 233,305.5C 241.167,323.167 249.333,340.833 257.5,358.5C 259.933,360.054 262.6,360.72 265.5,360.5C 265.5,362.167 265.5,363.833 265.5,365.5C 254.167,364.167 242.833,364.167 231.5,365.5C 231.286,363.856 231.62,362.356 232.5,361C 234.5,360.667 236.5,360.333 238.5,360C 239.428,359.612 240.095,358.945 240.5,358C 238.454,353.408 236.287,348.908 234,344.5C 228.002,344.761 222.002,345.094 216,345.5C 213.419,349.898 212.086,354.565 212,359.5C 214.381,360.435 216.881,360.768 219.5,360.5C 219.5,362.167 219.5,363.833 219.5,365.5C 210.823,364.385 202.156,364.385 193.5,365.5C 193.286,363.856 193.62,362.356 194.5,361C 197.571,360.853 200.404,360.02 203,358.5C 210.789,340.593 218.289,322.593 225.5,304.5 Z M 224.5,323.5 C 227.33,327.827 229.663,332.493 231.5,337.5C 227.5,338.833 223.5,338.833 219.5,337.5C 221.745,333.017 223.411,328.35 224.5,323.5 Z"/></g>
<g><path style="opacity:0.857" fill="#fefffe" d="M 302.5,304.5 C 310.319,304.032 317.986,304.865 325.5,307C 327.213,311.987 327.879,317.154 327.5,322.5C 325.801,322.66 324.134,322.494 322.5,322C 320.413,318.492 318.08,315.158 315.5,312C 310.721,309.126 306.054,309.126 301.5,312C 297.5,315.667 297.5,319.333 301.5,323C 308.323,326.123 315.323,328.789 322.5,331C 331.911,336.343 334.745,344.176 331,354.5C 328.569,359.979 324.403,363.479 318.5,365C 308.642,367.32 298.975,366.653 289.5,363C 288.529,357.928 288.195,352.762 288.5,347.5C 290.199,347.34 291.866,347.506 293.5,348C 295.386,353.218 298.719,357.218 303.5,360C 307.5,360.667 311.5,360.667 315.5,360C 322.597,357.74 324.264,353.407 320.5,347C 311.752,343.528 303.085,339.862 294.5,336C 285.605,327.289 285.271,318.289 293.5,309C 296.592,307.454 299.592,305.954 302.5,304.5 Z"/></g>
<g><path style="opacity:0.873" fill="#fefffe" d="M 79.5,305.5 C 91.4139,305.179 103.247,305.512 115,306.5C 115.684,307.784 115.517,308.951 114.5,310C 110.958,310.427 107.792,311.593 105,313.5C 104.5,328.83 104.333,344.163 104.5,359.5C 112.571,359.863 120.571,359.363 128.5,358C 132.919,355.758 135.586,352.258 136.5,347.5C 138.5,347.5 140.5,347.5 142.5,347.5C 142.575,353.529 142.241,359.529 141.5,365.5C 120.257,364.748 99.09,364.415 78,364.5C 77.5078,363.451 77.6744,362.451 78.5,361.5C 81.949,360.233 85.449,359.233 89,358.5C 89.4999,343.17 89.6666,327.837 89.5,312.5C 85.137,312.165 81.4703,310.499 78.5,307.5C 78.8627,306.817 79.1961,306.15 79.5,305.5 Z"/></g>
<g><path style="opacity:0.851" fill="#fefffe" d="M 133.5,305.5 C 145.5,305.5 157.5,305.5 169.5,305.5C 169.5,307.167 169.5,308.833 169.5,310.5C 167.143,310.337 164.81,310.503 162.5,311C 161.09,311.368 160.09,312.201 159.5,313.5C 164.667,324.5 169.833,335.5 175,346.5C 180.372,335.89 184.872,324.89 188.5,313.5C 188.182,312.353 187.516,311.519 186.5,311C 184.109,310.713 181.776,310.213 179.5,309.5C 178.571,308.311 178.238,306.978 178.5,305.5C 187.5,305.5 196.5,305.5 205.5,305.5C 205.762,306.978 205.429,308.311 204.5,309.5C 201.634,310.182 199.134,311.516 197,313.5C 188.775,330.85 180.941,348.35 173.5,366C 171.421,366.808 169.421,366.641 167.5,365.5C 159.561,347.62 151.061,329.954 142,312.5C 139.435,310.821 136.602,310.154 133.5,310.5C 133.5,308.833 133.5,307.167 133.5,305.5 Z"/></g>
<g><path style="opacity:0.847" fill="#fefffe" d="M 265.5,305.5 C 274.457,304.972 279.457,309.139 280.5,318C 279.267,329.079 273.267,334.579 262.5,334.5C 261.572,333.232 261.405,331.899 262,330.5C 266.068,329.266 268.568,326.599 269.5,322.5C 269.392,321.558 269.059,320.725 268.5,320C 259.534,316.351 258.534,311.517 265.5,305.5 Z"/></g>
<g><path style="opacity:0.531" fill="#fefffe" d="M 342.5,376.5 C 342.5,379.167 342.5,381.833 342.5,384.5C 338.411,389.211 333.911,389.544 329,385.5C 325.798,377.048 328.632,372.881 337.5,373C 339.323,373.997 340.99,375.164 342.5,376.5 Z M 339.5,377.5 C 340.874,379.517 340.707,381.517 339,383.5C 338.82,381.512 338.986,379.512 339.5,377.5 Z M 334.5,381.5 C 335.249,382.531 335.915,383.698 336.5,385C 336.167,385.167 335.833,385.333 335.5,385.5C 334.571,384.311 334.238,382.978 334.5,381.5 Z"/></g>
<g><path style="opacity:0.767" fill="#fefffe" d="M -0.5,374.5 C 4.83333,374.5 10.1667,374.5 15.5,374.5C 15.5,376.167 15.5,377.833 15.5,379.5C 11.8333,379.5 8.16667,379.5 4.5,379.5C 4.33788,381.527 4.50454,383.527 5,385.5C 7.71914,384.556 10.5525,384.223 13.5,384.5C 13.5,386.167 13.5,387.833 13.5,389.5C 10.5,389.5 7.5,389.5 4.5,389.5C 4.33788,391.527 4.50454,393.527 5,395.5C 8.39364,394.544 11.8936,394.211 15.5,394.5C 15.5,396.167 15.5,397.833 15.5,399.5C 10.1667,399.5 4.83333,399.5 -0.5,399.5C -0.5,391.167 -0.5,382.833 -0.5,374.5 Z"/></g>
<g><path style="opacity:0.767" fill="#fefffe" d="M 33.5,399.5 C 31.8333,399.5 30.1667,399.5 28.5,399.5C 28.1667,398.167 27.8333,398.167 27.5,399.5C 25.1667,399.5 22.8333,399.5 20.5,399.5C 15.1764,393.534 15.1764,387.534 20.5,381.5C 22.8333,380.167 25.1667,380.167 27.5,381.5C 28.4742,379.257 28.8076,376.924 28.5,374.5C 30.1667,374.5 31.8333,374.5 33.5,374.5C 33.5,382.833 33.5,391.167 33.5,399.5 Z M 23.5,385.5 C 28.1522,386.104 29.6522,388.77 28,393.5C 26.6043,395.527 24.9376,395.86 23,394.5C 22.2642,391.408 22.4309,388.408 23.5,385.5 Z"/></g>
<g><path style="opacity:0.555" fill="#fefffe" d="M 103.5,374.5 C 105.167,374.5 106.833,374.5 108.5,374.5C 108.5,376.5 108.5,378.5 108.5,380.5C 106.833,380.5 105.167,380.5 103.5,380.5C 103.5,378.5 103.5,376.5 103.5,374.5 Z"/></g>
<g><path style="opacity:0.757" fill="#fefffe" d="M 164.5,399.5 C 162.5,399.5 160.5,399.5 158.5,399.5C 158.5,391.167 158.5,382.833 158.5,374.5C 163.833,374.5 169.167,374.5 174.5,374.5C 174.5,376.167 174.5,377.833 174.5,379.5C 171.167,379.5 167.833,379.5 164.5,379.5C 164.5,381.5 164.5,383.5 164.5,385.5C 167.167,385.5 169.833,385.5 172.5,385.5C 172.5,386.833 172.5,388.167 172.5,389.5C 169.833,389.5 167.167,389.5 164.5,389.5C 164.5,392.833 164.5,396.167 164.5,399.5 Z"/></g>
<g><path style="opacity:0.761" fill="#fefffe" d="M 248.5,399.5 C 246.833,399.5 245.167,399.5 243.5,399.5C 243.167,398.167 242.833,398.167 242.5,399.5C 239.833,399.5 237.167,399.5 234.5,399.5C 231.384,394.794 230.884,389.794 233,384.5C 235.218,380.685 238.384,379.685 242.5,381.5C 243.474,379.257 243.808,376.924 243.5,374.5C 245.167,374.5 246.833,374.5 248.5,374.5C 248.5,382.833 248.5,391.167 248.5,399.5 Z M 238.5,385.5 C 243.152,386.104 244.652,388.77 243,393.5C 241.604,395.527 239.938,395.86 238,394.5C 237.264,391.408 237.431,388.408 238.5,385.5 Z"/></g>
<g><path style="opacity:0.59" fill="#fefffe" d="M 282.5,374.5 C 284.167,374.5 285.833,374.5 287.5,374.5C 287.5,376.5 287.5,378.5 287.5,380.5C 285.833,380.5 284.167,380.5 282.5,380.5C 282.5,378.5 282.5,376.5 282.5,374.5 Z"/></g>
<g><path style="opacity:0.764" fill="#fefffe" d="M 101.5,399.5 C 98.8333,399.5 96.1667,399.5 93.5,399.5C 93.0516,394.091 92.0516,388.758 90.5,383.5C 91.8936,381.354 92.5603,379.021 92.5,376.5C 94.1667,376.5 95.8333,376.5 97.5,376.5C 97.5,378.167 97.5,379.833 97.5,381.5C 98.5,381.5 99.5,381.5 100.5,381.5C 100.5,382.833 100.5,384.167 100.5,385.5C 99.5,385.5 98.5,385.5 97.5,385.5C 97.5,388.833 97.5,392.167 97.5,395.5C 98.8333,395.5 100.167,395.5 101.5,395.5C 101.5,396.833 101.5,398.167 101.5,399.5 Z"/></g>
<g><path style="opacity:0.747" fill="#fefffe" d="M 280.5,399.5 C 278.167,399.5 275.833,399.5 273.5,399.5C 272.159,394.278 270.825,388.945 269.5,383.5C 270.612,381.61 271.446,379.61 272,377.5C 273.356,376.62 274.856,376.286 276.5,376.5C 276.5,378.167 276.5,379.833 276.5,381.5C 277.833,381.5 279.167,381.5 280.5,381.5C 280.5,382.833 280.5,384.167 280.5,385.5C 279.167,385.5 277.833,385.5 276.5,385.5C 276.335,388.518 276.502,391.518 277,394.5C 278.011,395.337 279.178,395.67 280.5,395.5C 280.5,396.833 280.5,398.167 280.5,399.5 Z"/></g>
<g><path style="opacity:0.731" fill="#fefffe" d="M 67.5,399.5 C 64.5,399.5 61.5,399.5 58.5,399.5C 53.2475,393.661 53.2475,387.828 58.5,382C 65.2985,379.23 69.2985,381.397 70.5,388.5C 68.8333,388.5 67.1667,388.5 65.5,388.5C 65.5,387.5 65.5,386.5 65.5,385.5C 63.549,385.227 62.049,385.893 61,387.5C 59.9686,390.683 60.6353,393.349 63,395.5C 64.987,393.372 67.487,392.372 70.5,392.5C 70.3122,395.206 69.3122,397.539 67.5,399.5 Z"/></g>
<g><path style="opacity:0.709" fill="#fefffe" d="M 88.5,399.5 C 86.8333,399.5 85.1667,399.5 83.5,399.5C 83.1667,398.167 82.8333,398.167 82.5,399.5C 79.5,399.5 76.5,399.5 73.5,399.5C 70.509,395.638 70.8424,392.138 74.5,389C 77.4245,388.012 80.4245,387.346 83.5,387C 81.1667,383.667 78.8333,383.667 76.5,387C 75.2068,387.49 73.8734,387.657 72.5,387.5C 72.5826,382.434 75.2493,380.101 80.5,380.5C 83.8606,380.438 86.3606,381.771 88,384.5C 88.4993,389.489 88.6659,394.489 88.5,399.5 Z M 82.5,390.5 C 83.3986,391.994 83.0653,393.494 81.5,395C 79.597,395.774 77.9304,395.44 76.5,394C 78.2573,392.25 80.2573,391.084 82.5,390.5 Z"/></g>
<g><path style="opacity:0.752" fill="#fefffe" d="M 124.5,399.5 C 121.167,399.5 117.833,399.5 114.5,399.5C 109.221,393.664 109.221,387.831 114.5,382C 124.432,379.258 128.932,383.091 128,393.5C 127.074,395.692 125.907,397.692 124.5,399.5 Z M 117.5,385.5 C 119.144,385.286 120.644,385.62 122,386.5C 122.777,389.429 122.61,392.263 121.5,395C 119.888,395.72 118.388,395.554 117,394.5C 116.264,391.408 116.431,388.408 117.5,385.5 Z"/></g>
<g><path style="opacity:0.74" fill="#fefffe" d="M 146.5,399.5 C 144.833,399.5 143.167,399.5 141.5,399.5C 141.666,395.486 141.499,391.486 141,387.5C 139.451,384.997 137.784,384.997 136,387.5C 135.501,391.486 135.334,395.486 135.5,399.5C 133.833,399.5 132.167,399.5 130.5,399.5C 130.5,393.5 130.5,387.5 130.5,381.5C 132.467,381.261 134.301,381.594 136,382.5C 139,379.833 142,379.833 145,382.5C 146.351,388.072 146.851,393.738 146.5,399.5 Z"/></g>
<g><path style="opacity:0.752" fill="#fefffe" d="M 188.5,399.5 C 185.167,399.5 181.833,399.5 178.5,399.5C 173.221,393.664 173.221,387.831 178.5,382C 188.432,379.258 192.932,383.091 192,393.5C 191.074,395.692 189.907,397.692 188.5,399.5 Z M 181.5,385.5 C 183.144,385.286 184.644,385.62 186,386.5C 186.777,389.429 186.61,392.263 185.5,395C 183.888,395.72 182.388,395.554 181,394.5C 180.264,391.408 180.431,388.408 181.5,385.5 Z"/></g>
<g><path style="opacity:0.76" fill="#fefffe" d="M 229.5,399.5 C 227.833,399.5 226.167,399.5 224.5,399.5C 224.647,394.786 224.314,390.119 223.5,385.5C 222.178,385.33 221.011,385.663 220,386.5C 218.71,390.73 218.21,395.064 218.5,399.5C 216.833,399.5 215.167,399.5 213.5,399.5C 213.5,393.5 213.5,387.5 213.5,381.5C 215.766,381.141 217.599,381.808 219,383.5C 221.581,379.943 224.581,379.61 228,382.5C 229.404,388.044 229.904,393.71 229.5,399.5 Z"/></g>
<g><path style="opacity:0.717" fill="#fefffe" d="M 267.5,399.5 C 265.833,399.5 264.167,399.5 262.5,399.5C 262.167,398.167 261.833,398.167 261.5,399.5C 258.5,399.5 255.5,399.5 252.5,399.5C 249.291,393.928 250.625,389.928 256.5,387.5C 254.833,387.5 253.167,387.5 251.5,387.5C 251.448,384.048 253.115,381.881 256.5,381C 260.987,379.622 264.487,380.788 267,384.5C 267.499,389.489 267.666,394.489 267.5,399.5 Z M 256.5,387.5 C 257.932,384.127 259.932,383.793 262.5,386.5C 260.604,387.466 258.604,387.799 256.5,387.5 Z M 261.5,390.5 C 263.176,394.833 261.509,396.5 256.5,395.5C 256.351,394.448 256.517,393.448 257,392.5C 258.622,391.901 260.122,391.234 261.5,390.5 Z"/></g>
<g><path style="opacity:0.743" fill="#fefffe" d="M 303.5,399.5 C 300.167,399.5 296.833,399.5 293.5,399.5C 288.81,394.249 288.477,388.749 292.5,383C 302.86,378.683 307.693,382.183 307,393.5C 306.436,395.887 305.27,397.887 303.5,399.5 Z M 296.5,385.5 C 302.548,386.46 303.881,389.627 300.5,395C 298.567,395.783 297.067,395.283 296,393.5C 295.398,390.779 295.565,388.113 296.5,385.5 Z"/></g>
<g><path style="opacity:0.735" fill="#fefffe" d="M 325.5,399.5 C 323.833,399.5 322.167,399.5 320.5,399.5C 320.666,395.154 320.499,390.821 320,386.5C 318.667,385.167 317.333,385.167 316,386.5C 315.501,390.821 315.334,395.154 315.5,399.5C 313.5,399.5 311.5,399.5 309.5,399.5C 309.5,393.5 309.5,387.5 309.5,381.5C 311.766,381.141 313.599,381.808 315,383.5C 317.581,379.943 320.581,379.61 324,382.5C 325.404,388.044 325.904,393.71 325.5,399.5 Z"/></g>
<g><path style="opacity:0.791" fill="#fefffe" d="M 52.5,399.5 C 50.8333,399.5 49.1667,399.5 47.5,399.5C 47.1667,398.167 46.8333,398.167 46.5,399.5C 43.8333,399.5 41.1667,399.5 38.5,399.5C 37.5872,393.559 37.2539,387.559 37.5,381.5C 39.1667,381.5 40.8333,381.5 42.5,381.5C 42.5,386.167 42.5,390.833 42.5,395.5C 44.3904,395.703 45.8904,395.037 47,393.5C 47.4988,389.514 47.6655,385.514 47.5,381.5C 49.1667,381.5 50.8333,381.5 52.5,381.5C 52.5,387.5 52.5,393.5 52.5,399.5 Z"/></g>
<g><path style="opacity:0.76" fill="#fefffe" d="M 108.5,399.5 C 106.833,399.5 105.167,399.5 103.5,399.5C 103.5,393.5 103.5,387.5 103.5,381.5C 105.167,381.5 106.833,381.5 108.5,381.5C 108.5,387.5 108.5,393.5 108.5,399.5 Z"/></g>
<g><path style="opacity:0.735" fill="#fefffe" d="M 210.5,399.5 C 208.833,399.5 207.167,399.5 205.5,399.5C 205.167,398.167 204.833,398.167 204.5,399.5C 201.833,399.5 199.167,399.5 196.5,399.5C 194.644,393.718 193.977,387.718 194.5,381.5C 196.167,381.5 197.833,381.5 199.5,381.5C 199.334,385.846 199.501,390.179 200,394.5C 201.333,395.833 202.667,395.833 204,394.5C 204.499,390.179 204.666,385.846 204.5,381.5C 206.5,381.5 208.5,381.5 210.5,381.5C 210.5,387.5 210.5,393.5 210.5,399.5 Z"/></g>
<g><path style="opacity:0.805" fill="#fefffe" d="M 287.5,399.5 C 285.833,399.5 284.167,399.5 282.5,399.5C 282.5,393.5 282.5,387.5 282.5,381.5C 284.167,381.5 285.833,381.5 287.5,381.5C 287.5,387.5 287.5,393.5 287.5,399.5 Z"/></g>
</svg>
